<svg xmlns="http://www.w3.org/2000/svg" viewBox="0 0 32 32"><defs><style>.cls-1{fill:#ffe082;}.cls-2{fill:#ffb74d;}.cls-3{fill:#039be5;}</style></defs><title>custom coding marketing networking online</title><g id="custom_coding" data-name="custom coding"><rect class="cls-1" x="1" y="3" width="30" height="26" rx="1" ry="1"/><path class="cls-2" d="M30,3H2A1,1,0,0,0,1,4V9H31V4A1,1,0,0,0,30,3Z"/><path class="cls-3" d="M10.49,22.71l-4-4a1,1,0,0,1,0-1.42l4-4a1,1,0,0,1,1.42,1.42L8.62,18l3.29,3.29a1,1,0,0,1-1.42,1.42Z"/><path class="cls-3" d="M20.09,22.71a1,1,0,0,1,0-1.42L23.38,18l-3.29-3.29a1,1,0,0,1,1.42-1.42l4,4a1,1,0,0,1,0,1.42l-4,4A1,1,0,0,1,20.09,22.71Z"/><path class="cls-3" d="M13.63,23.93a1,1,0,0,1-.56-1.3l4-10a1,1,0,0,1,1.86.74l-4,10A1,1,0,0,1,13.63,23.93Z"/></g></svg>